<?xml version="1.0" encoding="utf-8"?>
<!-- Generator: Adobe Illustrator 23.1.1, SVG Export Plug-In . SVG Version: 6.00 Build 0)  -->
<svg version="1.1" id="Museo" xmlns="http://www.w3.org/2000/svg" xmlns:xlink="http://www.w3.org/1999/xlink" x="0px" y="0px"
	 viewBox="0 0 113.4 31.2" style="enable-background:new 0 0 113.4 31.2;" xml:space="preserve">
<style type="text/css">
	.st0{fill:#00A0D2;}
	.st1{fill:#144B96;}
	.st2{fill:#FFFFFF;}
</style>
<g>
	<path class="st2" d="M103.9,13.5H103c-0.3,0-0.5-0.2-0.7-0.4c-0.1-0.2-0.1-0.5,0-0.8L110,1.1c0.1-0.2,0.3-0.3,0.5-0.3
		c0.2,0,0.4,0,0.6,0.1l0.6,0.4c0.3,0.2,0.4,0.7,0.2,1l-7.3,10.9C104.4,13.4,104.2,13.5,103.9,13.5z M100.3,13.5h-0.9
		c-0.2,0-0.5-0.1-0.6-0.3L91.4,2.3c-0.2-0.3-0.1-0.8,0.2-1l0.6-0.4c0.2-0.1,0.4-0.2,0.6-0.1c0.2,0,0.4,0.2,0.5,0.3l7.6,11.3
		c0.2,0.2,0.2,0.5,0,0.8C100.8,13.4,100.6,13.5,100.3,13.5z M81.7,13.5h-0.8c-0.4,0-0.8-0.3-0.8-0.8V1.6c0-0.4,0.3-0.7,0.8-0.7h0.8
		c0.4,0,0.8,0.3,0.8,0.7v11.2C82.5,13.2,82.1,13.5,81.7,13.5z M67.9,13.5h-0.8c-0.4,0-0.8-0.3-0.8-0.8V1.6c0-0.4,0.3-0.7,0.8-0.7
		h0.8c0.4,0,0.8,0.3,0.8,0.7v11.2C68.7,13.2,68.4,13.5,67.9,13.5z M57.3,13.5h-0.9c-0.3,0-0.5-0.1-0.6-0.3l-4.9-7.7v7.3
		c0,0.4-0.3,0.8-0.8,0.8h-0.8c-0.4,0-0.8-0.3-0.8-0.8V1.9c0-0.3,0.2-0.5,0.4-0.7l0.8-0.4c0.3-0.2,0.8-0.1,1,0.3l7.1,11.3
		c0.1,0.2,0.2,0.5,0,0.8C57.8,13.4,57.6,13.5,57.3,13.5z M33.3,13.5h-0.9c-0.3,0-0.5-0.1-0.7-0.4c-0.1-0.2-0.1-0.5,0-0.8l7-11.3
		c0.1-0.2,0.3-0.3,0.5-0.3c0.2,0,0.4,0,0.6,0.1l0.6,0.4c0.4,0.2,0.5,0.7,0.2,1l-6.8,10.9C33.8,13.4,33.5,13.5,33.3,13.5z M26.5,13.5
		h-0.9c-0.3,0-0.5-0.1-0.6-0.4L18.2,2.3c-0.2-0.4-0.1-0.8,0.2-1l0.6-0.4c0.2-0.1,0.4-0.1,0.6-0.1c0.2,0,0.4,0.2,0.5,0.3l7,11.3
		c0.1,0.2,0.2,0.5,0,0.8C27.1,13.4,26.8,13.5,26.5,13.5z M2.6,13.5H1.8c-0.4,0-0.8-0.3-0.8-0.8V1.6c0-0.4,0.3-0.7,0.8-0.7h0.8
		c0.4,0,0.8,0.3,0.8,0.7v11.2C3.3,13.2,3,13.5,2.6,13.5z"/>
	<path class="st2" d="M67.1,30.5c-0.2,0-0.5-0.1-0.6-0.3l-7.3-11.5c-0.1-0.2-0.2-0.5,0-0.8c0.1-0.2,0.4-0.4,0.7-0.4h0.9
		c0.3,0,0.5,0.1,0.6,0.3l5,7.9v-7.5c0-0.4,0.3-0.8,0.8-0.8h0.8c0.4,0,0.8,0.3,0.8,0.8v11.1c0,0.3-0.2,0.5-0.4,0.7l-0.8,0.4
		C67.4,30.5,67.3,30.5,67.1,30.5z"/>
	<path class="st2" d="M110.9,30.5c0,0-0.1,0-0.1,0c-0.2,0-0.4-0.2-0.5-0.3l-7.8-11.5c-0.2-0.2-0.2-0.5,0-0.8
		c0.1-0.2,0.4-0.4,0.7-0.4h0.9c0.2,0,0.5,0.1,0.6,0.3l7.5,11.1c0.2,0.3,0.1,0.8-0.2,1l-0.6,0.4C111.2,30.5,111,30.5,110.9,30.5z"/>
	<path class="st2" d="M92.4,30.5c-0.2,0-0.3,0-0.4-0.1L91.4,30c-0.3-0.2-0.4-0.7-0.2-1l7.5-11.1c0.1-0.2,0.4-0.3,0.6-0.3h0.9
		c0.3,0,0.5,0.2,0.7,0.4c0.1,0.2,0.1,0.5,0,0.8L93,30.2c-0.1,0.2-0.3,0.3-0.5,0.3C92.5,30.5,92.5,30.5,92.4,30.5z"/>
	<path class="st2" d="M81.7,30.4h-0.8c-0.4,0-0.8-0.3-0.8-0.8V18.3c0-0.4,0.3-0.8,0.8-0.8h0.8c0.4,0,0.8,0.3,0.8,0.8v11.3
		C82.5,30,82.1,30.4,81.7,30.4z"/>
	<path class="st2" d="M50.1,30.4h-0.8c-0.4,0-0.8-0.3-0.8-0.8V18.3c0-0.4,0.3-0.8,0.8-0.8h0.8c0.4,0,0.8,0.3,0.8,0.8v11.3
		C50.9,30,50.6,30.4,50.1,30.4z"/>
	<path class="st2" d="M29.9,30.4h-0.8c-0.4,0-0.8-0.3-0.8-0.8V18.3c0-0.4,0.3-0.8,0.8-0.8h0.8c0.4,0,0.8,0.3,0.8,0.8v11.3
		C30.6,30,30.3,30.4,29.9,30.4z"/>
	<path class="st2" d="M18,30.4H1.8C1.4,30.4,1,30,1,29.6V18.3c0-0.4,0.3-0.8,0.8-0.8h0.8c0.4,0,0.8,0.3,0.8,0.8v9.9H18
		c0.4,0,0.8,0.3,0.8,0.8v0.7C18.8,30,18.4,30.4,18,30.4z"/>
</g>
</svg>
